<?xml version="1.0" standalone="no"?>
<!DOCTYPE svg PUBLIC "-//W3C//DTD SVG 20010904//EN"
 "http://www.w3.org/TR/2001/REC-SVG-20010904/DTD/svg10.dtd">
<svg version="1.0" xmlns="http://www.w3.org/2000/svg"
 width="24.000000pt" height="24.000000pt" viewBox="0 0 24.000000 24.000000"
 preserveAspectRatio="xMidYMid meet">

<g transform="translate(0.000000,24.000000) scale(0.100000,-0.100000)"
fill="#000000" stroke="none">
<path d="M112 198 c-7 -7 -12 -20 -12 -29 0 -9 -7 -19 -15 -23 -8 -3 -15 -12
-15 -21 0 -8 7 -15 15 -15 11 0 15 -11 15 -40 0 -29 4 -40 15 -40 11 0 15 11
15 40 0 29 4 40 15 40 8 0 15 9 15 20 0 11 -7 20 -15 20 -22 0 -18 21 5 27 11
3 20 12 20 19 0 17 -41 19 -58 2z"/>
</g>
</svg>
