<?xml version="1.0" standalone="no"?>
<!DOCTYPE svg PUBLIC "-//W3C//DTD SVG 20010904//EN"
 "http://www.w3.org/TR/2001/REC-SVG-20010904/DTD/svg10.dtd">
<svg version="1.0" xmlns="http://www.w3.org/2000/svg"
 width="24.000000pt" height="24.000000pt" viewBox="0 0 24.000000 24.000000"
 preserveAspectRatio="xMidYMid meet">

<g transform="translate(0.000000,24.000000) scale(0.100000,-0.100000)"
fill="#000000" stroke="none">
<path d="M47 192 c-24 -27 -23 -123 1 -145 27 -24 123 -23 145 1 24 27 23 123
-1 145 -27 24 -123 23 -145 -1z m138 -72 l0 -65 -65 0 -65 0 -3 54 c-5 80 -2
82 70 79 l63 -3 0 -65z"/>
<path d="M160 170 c0 -5 5 -10 10 -10 6 0 10 5 10 10 0 6 -4 10 -10 10 -5 0
-10 -4 -10 -10z"/>
<path d="M80 141 c-12 -24 -4 -48 21 -62 38 -20 79 24 59 62 -14 26 -66 26
-80 0z m65 -21 c0 -18 -6 -26 -23 -28 -24 -4 -38 18 -28 44 3 9 15 14 28 12
17 -2 23 -10 23 -28z"/>
</g>
</svg>
