<?xml version="1.0" standalone="no"?>
<!DOCTYPE svg PUBLIC "-//W3C//DTD SVG 20010904//EN"
 "http://www.w3.org/TR/2001/REC-SVG-20010904/DTD/svg10.dtd">
<svg version="1.0" xmlns="http://www.w3.org/2000/svg"
 width="24.000000pt" height="24.000000pt" viewBox="0 0 24.000000 24.000000"
 preserveAspectRatio="xMidYMid meet">

<g transform="translate(0.000000,24.000000) scale(0.100000,-0.100000)"
fill="#000000" stroke="none">
<path d="M61 182 c-28 -27 -30 -35 -28 -89 l2 -58 63 0 c57 0 66 3 88 28 47
55 16 132 -58 144 -32 5 -41 1 -67 -25z m111 -9 c24 -22 24 -84 -1 -107 -12
-11 -33 -16 -67 -15 l-49 2 -3 50 c-2 36 2 55 14 68 21 24 81 25 106 2z"/>
<path d="M80 140 c0 -40 67 -79 85 -50 6 9 -8 14 -29 11 -15 -3 -36 21 -36 40
0 11 -4 19 -10 19 -5 0 -10 -9 -10 -20z"/>
</g>
</svg>
